<?xml version="1.0" encoding="UTF-8"?>
<!DOCTYPE svg PUBLIC "-//W3C//DTD SVG 1.1//EN" "http://www.w3.org/Graphics/SVG/1.1/DTD/svg11.dtd">
<svg xmlns="http://www.w3.org/2000/svg" version="1.1" width="1200px" height="1200px" style="shape-rendering:geometricPrecision; text-rendering:geometricPrecision; image-rendering:optimizeQuality; fill-rule:evenodd; clip-rule:evenodd" xmlns:xlink="http://www.w3.org/1999/xlink">
<g><path style="opacity:1" fill="#ddd6cc" d="M -0.5,-0.5 C 399.5,-0.5 799.5,-0.5 1199.5,-0.5C 1199.5,399.5 1199.5,799.5 1199.5,1199.5C 799.5,1199.5 399.5,1199.5 -0.5,1199.5C -0.5,799.5 -0.5,399.5 -0.5,-0.5 Z"/></g>
<g><path style="opacity:1" fill="#5c789f" d="M 581.5,210.5 C 689.814,209.139 772.314,254.139 829,345.5C 864.705,411.341 872.372,480.341 852,552.5C 825.072,634.093 771.906,691.26 692.5,724C 610.137,753.703 531.471,746.037 456.5,701C 381.326,651.199 340.159,581.033 333,490.5C 329.896,407.246 358.396,337.079 418.5,280C 465.052,238.728 519.385,215.561 581.5,210.5 Z"/></g>
<g><path style="opacity:1" fill="#ddd6cc" d="M 580.5,222.5 C 670.585,219.47 743.751,252.804 800,322.5C 848.981,390.025 862.981,464.358 842,545.5C 821.497,612.991 780.664,664.158 719.5,699C 657.932,731.325 593.598,738.325 526.5,720C 441.23,692.396 384.063,636.229 355,551.5C 331.097,465.392 346.097,387.059 400,316.5C 447.23,260.467 507.396,229.134 580.5,222.5 Z"/></g>
<g><path style="opacity:1" fill="#59769e" d="M 586.5,617.5 C 586.827,612.456 586.494,607.456 585.5,602.5C 584.893,602.624 584.56,602.957 584.5,603.5C 545.775,620.326 513.275,612.326 487,579.5C 480.359,569.077 476.192,557.744 474.5,545.5C 464.494,545.666 454.494,545.5 444.5,545C 438.18,542.014 434.013,537.181 432,530.5C 431.333,467.5 431.333,404.5 432,341.5C 434.415,335.417 438.582,330.917 444.5,328C 522.5,327.333 600.5,327.333 678.5,328C 685.428,330.594 689.928,335.427 692,342.5C 692.5,377.498 692.667,412.498 692.5,447.5C 716.169,447.333 739.836,447.5 763.5,448C 764.333,448.833 765.167,449.667 766,450.5C 767.155,478.94 767.655,507.44 767.5,536C 767.655,564.56 767.155,593.06 766,621.5C 764.681,623.487 762.848,624.654 760.5,625C 704.167,625.667 647.833,625.667 591.5,625C 588.211,623.59 586.544,621.09 586.5,617.5 Z"/></g>
<g><path style="opacity:1" fill="#d9d3cb" d="M 510.5,346.5 C 519.152,345.986 522.652,349.986 521,358.5C 515.124,364.28 510.124,363.613 506,356.5C 505.333,354.833 505.333,353.167 506,351.5C 507.366,349.638 508.866,347.972 510.5,346.5 Z"/></g>
<g><path style="opacity:1" fill="#d8d3cb" d="M 459.5,346.5 C 467.939,345.603 471.772,349.269 471,357.5C 466.408,363.679 461.408,364.012 456,358.5C 454.745,353.738 455.912,349.738 459.5,346.5 Z"/></g>
<g><path style="opacity:1" fill="#d8d3cb" d="M 484.5,346.5 C 493.643,345.623 497.477,349.623 496,358.5C 491.547,363.284 486.88,363.618 482,359.5C 479.567,354.498 480.401,350.165 484.5,346.5 Z"/></g>
<g><path style="opacity:1" fill="#7e91aa" d="M 673.5,447.5 C 673.5,426.167 673.5,404.833 673.5,383.5C 598.833,383.5 524.167,383.5 449.5,383.5C 449.5,431.167 449.5,478.833 449.5,526.5C 448.501,478.67 448.168,430.67 448.5,382.5C 523.833,382.5 599.167,382.5 674.5,382.5C 674.831,404.34 674.497,426.006 673.5,447.5 Z"/></g>
<g><path style="opacity:1" fill="#ddd6cc" d="M 673.5,447.5 C 646.498,447.333 619.498,447.5 592.5,448C 588.901,448.764 586.901,450.93 586.5,454.5C 585.833,459.5 585.167,464.5 584.5,469.5C 547.487,453.045 515.654,460.045 489,490.5C 480.862,500.779 476.029,512.445 474.5,525.5C 466.772,527.418 458.772,528.085 450.5,527.5C 449.833,527.5 449.5,527.167 449.5,526.5C 449.5,478.833 449.5,431.167 449.5,383.5C 524.167,383.5 598.833,383.5 673.5,383.5C 673.5,404.833 673.5,426.167 673.5,447.5 Z"/></g>
<g><path style="opacity:1" fill="#99a5b3" d="M 586.5,454.5 C 586.828,459.875 586.495,465.208 585.5,470.5C 584.893,470.376 584.56,470.043 584.5,469.5C 585.167,464.5 585.833,459.5 586.5,454.5 Z"/></g>
<g><path style="opacity:1" fill="#b4b7be" d="M 601.5,463.5 C 651.664,462.501 701.997,462.168 752.5,462.5C 752.5,511.833 752.5,561.167 752.5,610.5C 701.997,610.832 651.664,610.499 601.5,609.5C 651.5,609.5 701.5,609.5 751.5,609.5C 751.5,560.833 751.5,512.167 751.5,463.5C 701.5,463.5 651.5,463.5 601.5,463.5 Z"/></g>
<g><path style="opacity:1" fill="#ddd6cc" d="M 601.5,463.5 C 651.5,463.5 701.5,463.5 751.5,463.5C 751.5,512.167 751.5,560.833 751.5,609.5C 701.5,609.5 651.5,609.5 601.5,609.5C 601.5,560.833 601.5,512.167 601.5,463.5 Z"/></g>
<g><path style="opacity:1" fill="#dbd5cc" d="M 538.5,475.5 C 555.831,473.791 571.665,477.791 586,487.5C 586.833,519.838 586.667,552.172 585.5,584.5C 562.184,599.953 538.517,600.453 514.5,586C 495.553,571.191 487.053,551.691 489,527.5C 494.783,499.886 511.283,482.552 538.5,475.5 Z"/></g>
<g><path style="opacity:1" fill="#5b779e" d="M 534.5,486.5 C 543.582,486.066 546.749,490.066 544,498.5C 538.887,501.325 533.721,504.158 528.5,507C 520.922,513.485 515.589,521.485 512.5,531C 507.859,533.535 504.025,532.701 501,528.5C 500.333,525.5 500.333,522.5 501,519.5C 507.415,503.585 518.581,492.585 534.5,486.5 Z"/></g>
<g><path style="opacity:1" fill="#5b779e" d="M 682.5,494.5 C 690.201,494.362 693.367,498.029 692,505.5C 686.555,527.857 681.222,550.19 676,572.5C 673.928,577.143 670.428,578.643 665.5,577C 661.972,574.419 660.806,570.919 662,566.5C 667.201,543.363 672.868,520.363 679,497.5C 680.145,496.364 681.312,495.364 682.5,494.5 Z"/></g>
<g><path style="opacity:1" fill="#5a779e" d="M 644.5,502.5 C 652.32,502.152 655.82,505.819 655,513.5C 647.985,520.348 641.152,527.348 634.5,534.5C 641.152,541.652 647.985,548.652 655,555.5C 656.072,563.55 652.572,567.05 644.5,566C 635.667,557.167 626.833,548.333 618,539.5C 616.543,536.634 616.21,533.634 617,530.5C 626.369,521.298 635.536,511.965 644.5,502.5 Z"/></g>
<g><path style="opacity:1" fill="#5b779e" d="M 701.5,503.5 C 704.649,503.211 707.649,503.711 710.5,505C 718.667,513.167 726.833,521.333 735,529.5C 737,533.167 737,536.833 735,540.5C 727.167,548.333 719.333,556.167 711.5,564C 702.551,568.397 698.384,565.563 699,555.5C 705.316,548.35 711.816,541.35 718.5,534.5C 711.793,527.294 704.96,520.294 698,513.5C 697.333,511.5 697.333,509.5 698,507.5C 699.376,506.295 700.542,504.962 701.5,503.5 Z"/></g>
<g><path style="opacity:1" fill="#5b779e" d="M 543.5,509.5 C 564.822,508.327 575.656,518.327 576,539.5C 568.821,560.777 554.988,566.944 534.5,558C 523.975,549.414 520.809,538.581 525,525.5C 529.217,517.774 535.384,512.441 543.5,509.5 Z"/></g>
<g><path style="opacity:1" fill="#dad4cb" d="M 544.5,525.5 C 556.454,523.7 561.621,528.7 560,540.5C 556.96,546.603 552.126,548.769 545.5,547C 539.158,543.638 536.992,538.472 539,531.5C 540.699,529.304 542.533,527.304 544.5,525.5 Z"/></g>
<g><path style="opacity:1" fill="#bbbdc1" d="M 474.5,525.5 C 474.5,526.5 474.5,527.5 474.5,528.5C 466.316,528.826 458.316,528.492 450.5,527.5C 458.772,528.085 466.772,527.418 474.5,525.5 Z"/></g>
<g><path style="opacity:1" fill="#99a5b3" d="M 584.5,603.5 C 584.56,602.957 584.893,602.624 585.5,602.5C 586.494,607.456 586.827,612.456 586.5,617.5C 585.833,612.833 585.167,608.167 584.5,603.5 Z"/></g>
<g><path style="opacity:1" fill="#8395ad" d="M 453.5,808.5 C 461.316,807.508 469.316,807.174 477.5,807.5C 477.737,808.791 477.404,809.791 476.5,810.5C 469.24,808.535 461.573,807.868 453.5,808.5 Z"/></g>
<g><path style="opacity:1" fill="#8395ad" d="M 486.5,808.5 C 494.316,807.508 502.316,807.174 510.5,807.5C 510.737,808.791 510.404,809.791 509.5,810.5C 502.24,808.535 494.573,807.868 486.5,808.5 Z"/></g>
<g><path style="opacity:1" fill="#8597ae" d="M 659.5,808.5 C 649.085,808.192 638.751,808.525 628.5,809.5C 633.288,808.172 638.454,807.505 644,807.5C 649.344,807.501 654.511,807.834 659.5,808.5 Z"/></g>
<g><path style="opacity:1" fill="#8798af" d="M 968.5,808.5 C 977.009,807.179 985.675,807.179 994.5,808.5C 994.376,809.107 994.043,809.44 993.5,809.5C 985.35,808.507 977.017,808.174 968.5,808.5 Z"/></g>
<g><path style="opacity:1" fill="#8596ae" d="M 1002.5,808.5 C 1011.01,807.179 1019.68,807.179 1028.5,808.5C 1028.38,809.107 1028.04,809.44 1027.5,809.5C 1019.35,808.507 1011.02,808.174 1002.5,808.5 Z"/></g>
<g><path style="opacity:1" fill="#627ca1" d="M 202.5,812.5 C 201.339,826.661 201.173,840.994 202,855.5C 202.717,854.956 203.217,854.289 203.5,853.5C 210.989,841.862 218.489,830.195 226,818.5C 228.037,812.813 226.204,810.146 220.5,810.5C 220.5,809.5 220.5,808.5 220.5,807.5C 228.5,807.5 236.5,807.5 244.5,807.5C 244.5,808.5 244.5,809.5 244.5,810.5C 238.731,809.634 234.231,811.634 231,816.5C 220.582,833.004 209.915,849.337 199,865.5C 198.092,867.439 196.592,868.439 194.5,868.5C 194.667,849.497 194.5,830.497 194,811.5C 191.619,810.565 189.119,810.232 186.5,810.5C 186.5,809.5 186.5,808.5 186.5,807.5C 194.833,807.5 203.167,807.5 211.5,807.5C 211.5,808.5 211.5,809.5 211.5,810.5C 208.813,810.336 206.146,810.503 203.5,811C 202.944,811.383 202.611,811.883 202.5,812.5 Z"/></g>
<g><path style="opacity:1" fill="#607ba0" d="M 423.5,808.5 C 428.167,808.5 432.833,808.5 437.5,808.5C 432.575,827.466 427.908,846.466 423.5,865.5C 424.873,865.657 426.207,865.49 427.5,865C 430.217,861.067 432.551,856.9 434.5,852.5C 434.833,853 435.167,853.5 435.5,854C 433.725,859.574 430.725,864.241 426.5,868C 424.833,868.667 423.167,868.667 421.5,868C 419.911,865.569 418.911,862.903 418.5,860C 422.915,843.505 427.249,827.005 431.5,810.5C 428.302,811.036 425.635,810.369 423.5,808.5 Z"/></g>
<g><path style="opacity:1" fill="#5e7aa0" d="M 453.5,808.5 C 461.573,807.868 469.24,808.535 476.5,810.5C 473.315,810.02 470.481,810.686 468,812.5C 465.97,820.159 464.136,827.825 462.5,835.5C 470.833,835.5 479.167,835.5 487.5,835.5C 489.793,827.244 491.793,818.911 493.5,810.5C 490.753,810.813 488.086,810.48 485.5,809.5C 485.624,808.893 485.957,808.56 486.5,808.5C 494.573,807.868 502.24,808.535 509.5,810.5C 506.289,810.012 503.456,810.679 501,812.5C 495.874,829.671 491.374,847.004 487.5,864.5C 490.167,864.5 492.833,864.5 495.5,864.5C 495.5,865.5 495.5,866.5 495.5,867.5C 487.167,867.5 478.833,867.5 470.5,867.5C 470.5,866.5 470.5,865.5 470.5,864.5C 473.572,864.817 476.572,864.484 479.5,863.5C 481.994,855.186 484.328,846.853 486.5,838.5C 477.833,838.5 469.167,838.5 460.5,838.5C 458.628,847.192 456.628,855.858 454.5,864.5C 457.167,864.5 459.833,864.5 462.5,864.5C 462.5,865.5 462.5,866.5 462.5,867.5C 454.167,867.5 445.833,867.5 437.5,867.5C 437.5,866.5 437.5,865.5 437.5,864.5C 441.03,865.011 444.196,864.344 447,862.5C 452.071,845.312 456.571,827.979 460.5,810.5C 457.753,810.813 455.086,810.48 452.5,809.5C 452.624,808.893 452.957,808.56 453.5,808.5 Z"/></g>
<g><path style="opacity:1" fill="#5f7aa0" d="M 800.5,807.5 C 810.839,807.334 821.172,807.5 831.5,808C 841.2,809.886 845.033,815.719 843,825.5C 838.961,831.85 833.128,835.35 825.5,836C 837.975,838.783 841.475,845.95 836,857.5C 832.245,862.295 827.412,865.462 821.5,867C 809.153,867.833 796.82,867.666 784.5,866.5C 784.709,865.914 785.043,865.414 785.5,865C 788.426,864.782 791.26,864.282 794,863.5C 799.198,846.006 803.698,828.34 807.5,810.5C 805.167,810.5 802.833,810.5 800.5,810.5C 800.5,809.5 800.5,808.5 800.5,807.5 Z"/></g>
<g><path style="opacity:1" fill="#5d799f" d="M 968.5,808.5 C 977.017,808.174 985.35,808.507 993.5,809.5C 992.048,810.302 990.382,810.802 988.5,811C 987.643,811.689 986.977,812.522 986.5,813.5C 989.333,819.833 992.167,826.167 995,832.5C 999.667,827.167 1004.33,821.833 1009,816.5C 1009.67,815.167 1009.67,813.833 1009,812.5C 1006.57,811.357 1004.41,810.024 1002.5,808.5C 1011.02,808.174 1019.35,808.507 1027.5,809.5C 1023.77,810.076 1020.1,811.243 1016.5,813C 1009.45,820.383 1002.78,828.049 996.5,836C 1000.53,845.226 1004.7,854.393 1009,863.5C 1011.72,864.444 1014.55,864.777 1017.5,864.5C 1017.5,865.5 1017.5,866.5 1017.5,867.5C 1008.83,867.5 1000.17,867.5 991.5,867.5C 991.5,866.5 991.5,865.5 991.5,864.5C 994.167,864.5 996.833,864.5 999.5,864.5C 998.141,856.456 995.141,849.122 990.5,842.5C 985.843,847.325 981.343,852.325 977,857.5C 975.247,863.253 977.414,865.919 983.5,865.5C 983.291,866.086 982.957,866.586 982.5,867C 973.84,867.5 965.173,867.666 956.5,867.5C 956.5,866.5 956.5,865.5 956.5,864.5C 960.792,864.965 964.792,864.132 968.5,862C 975.886,854.285 982.886,846.285 989.5,838C 985.688,828.71 981.354,819.71 976.5,811C 973.447,810.821 970.447,810.321 967.5,809.5C 967.624,808.893 967.957,808.56 968.5,808.5 Z"/></g>
<g><path style="opacity:1" fill="#5e7aa0" d="M 659.5,808.5 C 666.749,809.915 671.249,814.248 673,821.5C 675.32,838.556 669.82,852.389 656.5,863C 653.052,864.927 649.385,866.261 645.5,867C 634.839,867.5 624.172,867.667 613.5,867.5C 613.5,866.5 613.5,865.5 613.5,864.5C 616.5,864.5 619.5,864.5 622.5,864.5C 626.97,846.429 631.636,828.429 636.5,810.5C 633.615,810.806 630.948,810.473 628.5,809.5C 638.751,808.525 649.085,808.192 659.5,808.5 Z"/></g>
<g><path style="opacity:1" fill="#5f7aa0" d="M 710.5,805.5 C 724.999,805.833 732.332,813.333 732.5,828C 732.087,845.853 724.087,858.853 708.5,867C 695.419,870.601 687.252,865.767 684,852.5C 681.649,834.868 687.483,820.702 701.5,810C 704.592,808.454 707.592,806.954 710.5,805.5 Z"/></g>
<g><path style="opacity:1" fill="#dcd5cc" d="M 709.5,808.5 C 720.11,807.777 725.11,812.777 724.5,823.5C 724.473,838.42 719.807,851.586 710.5,863C 704.809,866.494 699.309,866.327 694,862.5C 689.1,845.236 691.766,829.236 702,814.5C 704.478,812.361 706.978,810.361 709.5,808.5 Z"/></g>
<g><path style="opacity:1" fill="#647ea2" d="M 254.5,809.5 C 260.023,810.311 261.356,812.977 258.5,817.5C 254.559,819.437 252.226,818.271 251.5,814C 251.557,811.791 252.557,810.291 254.5,809.5 Z"/></g>
<g><path style="opacity:1" fill="#dcd5cc" d="M 644.5,810.5 C 649.179,810.334 653.845,810.501 658.5,811C 661.728,812.563 663.895,815.063 665,818.5C 667.204,833.868 663.704,847.702 654.5,860C 652.112,861.861 649.446,863.194 646.5,864C 641.177,864.499 635.844,864.666 630.5,864.5C 634.786,846.404 639.453,828.404 644.5,810.5 Z"/></g>
<g><path style="opacity:1" fill="#dbd5cc" d="M 816.5,810.5 C 833.488,807.307 838.988,813.64 833,829.5C 831.59,830.787 830.09,831.954 828.5,833C 822.258,834.37 815.925,834.87 809.5,834.5C 811.049,826.195 813.383,818.195 816.5,810.5 Z"/></g>
<g><path style="opacity:1" fill="#8293ad" d="M 202.5,812.5 C 202.171,826.344 202.504,840.01 203.5,853.5C 203.217,854.289 202.717,854.956 202,855.5C 201.173,840.994 201.339,826.661 202.5,812.5 Z"/></g>
<g><path style="opacity:1" fill="#5f7aa0" d="M 762.5,805.5 C 769.278,805.472 775.111,807.805 780,812.5C 782.203,811.123 783.703,809.123 784.5,806.5C 784.833,807.333 785.167,808.167 785.5,809C 784.018,815.586 782.352,822.086 780.5,828.5C 779.583,821.835 776.916,816.002 772.5,811C 764.884,806.704 758.717,808.204 754,815.5C 753.183,818.964 753.517,822.298 755,825.5C 760.577,829.706 766.41,833.54 772.5,837C 779.648,843.056 781.481,850.556 778,859.5C 774.811,864.345 770.311,867.178 764.5,868C 761.167,868.667 757.833,868.667 754.5,868C 750.466,866.321 746.799,864.155 743.5,861.5C 742.558,861.608 741.725,861.941 741,862.5C 740.261,864.221 739.427,865.887 738.5,867.5C 738.167,866.833 737.833,866.167 737.5,865.5C 739.225,857.256 741.558,849.256 744.5,841.5C 743.927,851.467 747.593,859.301 755.5,865C 766.121,868.202 772.454,864.535 774.5,854C 774.458,852.033 773.958,850.199 773,848.5C 766.92,844.21 760.753,840.043 754.5,836C 744.649,822.403 747.315,812.236 762.5,805.5 Z"/></g>
<g><path style="opacity:1" fill="#5f7aa0" d="M 313.5,810.5 C 315.604,810.201 317.604,810.534 319.5,811.5C 317.201,817.661 315.534,823.994 314.5,830.5C 317.247,830.187 319.914,830.52 322.5,831.5C 319.296,832.204 316.129,832.87 313,833.5C 309.889,843.733 307.555,854.066 306,864.5C 307.388,865.554 308.888,865.72 310.5,865C 313.358,861.268 315.358,857.101 316.5,852.5C 317.089,857.133 315.923,861.466 313,865.5C 305.435,870.777 301.601,868.777 301.5,859.5C 303.025,850.398 305.025,841.398 307.5,832.5C 305.712,832.785 304.045,832.452 302.5,831.5C 304.686,830.779 306.853,830.113 309,829.5C 310.352,823.094 311.852,816.761 313.5,810.5 Z"/></g>
<g><path style="opacity:1" fill="#637da1" d="M 246.5,829.5 C 251.825,829.491 254.491,832.158 254.5,837.5C 253.14,844.891 250.64,851.891 247,858.5C 246.503,860.81 246.337,863.143 246.5,865.5C 247.873,865.657 249.207,865.49 250.5,865C 253.642,861.215 256.142,857.048 258,852.5C 257.643,858.054 255.477,862.887 251.5,867C 248.46,869.155 245.627,868.988 243,866.5C 241.595,862.928 241.262,859.261 242,855.5C 245.676,848.164 248.176,840.497 249.5,832.5C 247.278,832.178 245.444,832.845 244,834.5C 241.731,838.038 239.731,841.705 238,845.5C 238.468,838.896 241.302,833.562 246.5,829.5 Z"/></g>
<g><path style="opacity:1" fill="#607ba0" d="M 273.5,829.5 C 276.044,829.104 278.211,829.771 280,831.5C 280.333,835.167 280.667,838.833 281,842.5C 283.098,837.447 286.265,833.28 290.5,830C 297.053,829.237 299.219,832.07 297,838.5C 293.854,841.432 291.354,841.098 289.5,837.5C 289.722,835.945 290.389,834.611 291.5,833.5C 290.349,832.269 289.183,832.269 288,833.5C 281.717,843.844 276.884,854.844 273.5,866.5C 271.955,867.452 270.288,867.785 268.5,867.5C 271.325,855.865 273.992,844.199 276.5,832.5C 274.278,832.178 272.444,832.845 271,834.5C 269.162,838.176 267.329,841.842 265.5,845.5C 264.417,844.635 264.251,843.635 265,842.5C 266.849,837.454 269.682,833.121 273.5,829.5 Z"/></g>
<g><path style="opacity:1" fill="#5f7aa0" d="M 559.5,808.5 C 564.544,808.173 569.544,808.506 574.5,809.5C 571.509,819.134 569.009,828.801 567,838.5C 569.556,833.768 573.389,830.768 578.5,829.5C 585.262,830.604 588.262,834.604 587.5,841.5C 587.135,853.407 581.802,862.24 571.5,868C 562.329,869.666 557.329,865.833 556.5,856.5C 560.188,841.082 564.188,825.749 568.5,810.5C 564.988,811.055 561.988,810.388 559.5,808.5 Z"/></g>
<g><path style="opacity:1" fill="#627ca1" d="M 894.5,829.5 C 900.404,828.894 903.904,831.561 905,837.5C 907.537,834.628 910.37,832.128 913.5,830C 921.564,828.399 924.397,831.566 922,839.5C 918.854,842.432 916.354,842.098 914.5,838.5C 914.785,836.431 915.952,835.098 918,834.5C 918.483,833.552 918.649,832.552 918.5,831.5C 914.975,831.346 912.141,832.679 910,835.5C 904.673,844.475 902.339,854.142 903,864.5C 904.466,866.325 906.299,866.825 908.5,866C 913.089,863.245 916.422,859.412 918.5,854.5C 918.24,859.496 915.907,863.663 911.5,867C 904.266,870.542 899.766,868.376 898,860.5C 893.701,867.943 888.034,869.61 881,865.5C 880.245,862.697 880.578,860.03 882,857.5C 886.623,855.322 888.623,856.656 888,861.5C 883.105,864.928 883.605,866.428 889.5,866C 895.484,859.741 898.984,852.241 900,843.5C 900.667,840.167 900.667,836.833 900,833.5C 897.716,831.016 895.216,830.849 892.5,833C 889.556,835.722 887.223,838.889 885.5,842.5C 884.833,843.833 884.167,843.833 883.5,842.5C 886.029,837.046 889.696,832.712 894.5,829.5 Z"/></g>
<g><path style="opacity:1" fill="#607ba0" d="M 389.5,829.5 C 395.308,828.652 399.142,830.985 401,836.5C 400.802,831.878 402.968,829.878 407.5,830.5C 405.652,839.226 403.485,847.892 401,856.5C 400.502,859.482 400.335,862.482 400.5,865.5C 402.903,865.607 404.736,864.607 406,862.5C 407.682,859.136 409.349,855.802 411,852.5C 410.663,859.005 407.83,864.171 402.5,868C 400.559,868.743 398.726,868.576 397,867.5C 396.012,864.576 395.346,861.576 395,858.5C 392.119,863.558 387.953,866.891 382.5,868.5C 378.029,868.199 375.196,865.866 374,861.5C 372.506,847.49 377.673,836.824 389.5,829.5 Z"/></g>
<g><path style="opacity:1" fill="#607ba0" d="M 516.5,829.5 C 522.404,829.238 525.071,832.072 524.5,838C 523.637,844.902 521.47,851.402 518,857.5C 516.921,860.063 516.421,862.729 516.5,865.5C 519.564,865.856 522.231,865.023 524.5,863C 531.529,853.109 536.529,842.276 539.5,830.5C 541.527,830.338 543.527,830.505 545.5,831C 541.747,842.27 539.08,853.77 537.5,865.5C 539.903,865.607 541.736,864.607 543,862.5C 544.61,858.939 546.443,855.606 548.5,852.5C 548.833,852.833 549.167,853.167 549.5,853.5C 547.667,857.167 545.833,860.833 544,864.5C 540.549,869.13 536.883,869.463 533,865.5C 532.543,861.118 532.543,856.784 533,852.5C 530.274,857.893 526.774,862.726 522.5,867C 518.803,869.447 515.636,868.947 513,865.5C 512.333,861.5 512.333,857.5 513,853.5C 516.645,846.882 519.145,839.882 520.5,832.5C 518.533,832.261 516.699,832.594 515,833.5C 512.575,837.349 510.408,841.349 508.5,845.5C 507.417,844.635 507.251,843.635 508,842.5C 509.849,837.454 512.682,833.121 516.5,829.5 Z"/></g>
<g><path style="opacity:1" fill="#5f7aa0" d="M 862.5,829.5 C 869.748,828.578 874.582,831.578 877,838.5C 878.206,848.882 875.039,857.716 867.5,865C 858.422,871.077 851.589,869.244 847,859.5C 845.062,845.707 850.229,835.707 862.5,829.5 Z"/></g>
<g><path style="opacity:1" fill="#dad4cb" d="M 390.5,831.5 C 393.044,831.104 395.211,831.771 397,833.5C 398.504,837.039 398.837,840.705 398,844.5C 396.448,850.489 394.115,856.156 391,861.5C 389.155,864.183 386.655,865.85 383.5,866.5C 381.575,866.41 380.408,865.41 380,863.5C 379.204,851.389 382.704,840.722 390.5,831.5 Z"/></g>
<g><path style="opacity:1" fill="#dad4cb" d="M 575.5,831.5 C 577.722,831.178 579.556,831.845 581,833.5C 582.907,846.112 579.407,856.946 570.5,866C 564.637,866.805 561.971,864.139 562.5,858C 563.53,847.441 567.863,838.608 575.5,831.5 Z"/></g>
<g><path style="opacity:1" fill="#dad4cb" d="M 863.5,831.5 C 866.044,831.104 868.211,831.771 870,833.5C 871.845,844.142 869.845,854.142 864,863.5C 860.867,866.867 857.534,867.201 854,864.5C 851.223,851.678 854.389,840.678 863.5,831.5 Z"/></g>
<g><path style="opacity:1" fill="#607ba0" d="M 335.5,829.5 C 341.404,829.238 344.071,832.072 343.5,838C 342.637,844.902 340.47,851.402 337,857.5C 335.921,860.063 335.421,862.729 335.5,865.5C 337.989,865.702 340.323,865.202 342.5,864C 350.112,853.942 355.446,842.775 358.5,830.5C 360.527,830.338 362.527,830.505 364.5,831C 360.747,842.27 358.08,853.77 356.5,865.5C 358.903,865.607 360.736,864.607 362,862.5C 363.739,859.121 365.572,855.788 367.5,852.5C 367.833,852.833 368.167,853.167 368.5,853.5C 366.667,857.167 364.833,860.833 363,864.5C 360.151,868.553 356.818,869.22 353,866.5C 351.337,861.88 351.003,857.213 352,852.5C 349.274,857.893 345.774,862.726 341.5,867C 337.803,869.447 334.636,868.947 332,865.5C 331.333,861.5 331.333,857.5 332,853.5C 335.645,846.882 338.145,839.882 339.5,832.5C 337.533,832.261 335.699,832.594 334,833.5C 331.575,837.349 329.408,841.349 327.5,845.5C 326.417,844.635 326.251,843.635 327,842.5C 328.849,837.454 331.682,833.121 335.5,829.5 Z"/></g>
<g><path style="opacity:1" fill="#dbd5cc" d="M 808.5,837.5 C 825.786,833.951 832.286,840.617 828,857.5C 826.5,860.333 824.333,862.5 821.5,864C 814.842,864.5 808.175,864.666 801.5,864.5C 803.636,855.429 805.969,846.429 808.5,837.5 Z"/></g>
<g><path style="opacity:1" fill="#637da1" d="M 951.5,841.5 C 952.497,841.47 953.164,841.97 953.5,843C 953.11,845.459 951.776,847.126 949.5,848C 943.5,848.333 937.5,848.667 931.5,849C 929.711,850.787 929.211,850.287 930,847.5C 930.465,846.069 931.299,844.903 932.5,844C 939.246,844.131 945.579,843.298 951.5,841.5 Z"/></g>
</svg>
